<?xml version="1.0" standalone="no"?>
<!DOCTYPE svg PUBLIC "-//W3C//DTD SVG 20010904//EN"
 "http://www.w3.org/TR/2001/REC-SVG-20010904/DTD/svg10.dtd">
<svg version="1.0" xmlns="http://www.w3.org/2000/svg"
 width="700.000000pt" height="700.000000pt" viewBox="0 0 700.000000 700.000000"
 preserveAspectRatio="xMidYMid meet">
<metadata>
Created by potrace 1.11, written by Peter Selinger 2001-2013
</metadata>
<g transform="translate(0.000000,700.000000) scale(0.100000,-0.100000)"
fill="#000000" stroke="none">
<path d="M3335 6714 c-435 -33 -744 -105 -1100 -256 -278 -118 -553 -287 -792
-485 -128 -106 -358 -341 -461 -470 -659 -832 -867 -1929 -557 -2947 120 -395
339 -798 608 -1121 77 -92 271 -287 372 -374 422 -363 944 -616 1485 -720 396
-75 824 -75 1220 0 478 92 936 297 1338 601 145 109 382 333 497 468 716 844
952 1978 630 3034 -120 395 -336 793 -604 1116 -82 99 -286 304 -386 389 -490
416 -1079 672 -1714 746 -126 15 -443 26 -536 19z m457 -429 c1206 -128 2192
-1012 2446 -2195 46 -214 57 -323 56 -595 0 -287 -15 -424 -73 -660 -176 -719
-637 -1347 -1275 -1734 -170 -104 -412 -213 -613 -276 -900 -281 -1898 -83
-2622 520 -564 469 -918 1132 -996 1865 -114 1060 396 2102 1307 2669 524 327
1155 472 1770 406z"/>
<path d="M4065 4890 c-350 -57 -617 -287 -722 -625 l-28 -90 -3 -1397 -2
-1398 205 0 205 0 0 594 0 595 348 3 c324 4 352 6 427 27 379 107 661 390 762
766 27 99 27 102 28 445 0 325 -1 350 -22 425 -56 204 -161 362 -321 483 -93
69 -179 112 -298 148 -83 25 -104 27 -309 30 -121 1 -242 -1 -270 -6z m484
-429 c146 -45 262 -164 305 -310 23 -77 23 -585 1 -680 -47 -196 -215 -383
-407 -451 -94 -33 -174 -40 -455 -40 l-273 0 0 523 c0 311 4 548 11 587 27
171 152 318 317 371 85 27 414 27 501 0z"/>
<path d="M1810 4109 c0 -557 1 -597 21 -692 84 -416 408 -742 824 -828 65 -14
133 -19 248 -19 l157 0 0 204 0 203 -152 6 c-91 3 -175 12 -208 21 -211 60
-380 224 -451 441 -23 69 -23 75 -27 663 l-3 592 -205 0 -204 0 0 -591z"/>
</g>
</svg>
