<?xml version="1.0" encoding="UTF-8"?>
<svg id="Ebene_1" xmlns="http://www.w3.org/2000/svg" viewBox="0 0 273.71 198.43">
    <defs>
        <style>.cls-1{fill:#362071;}</style>
    </defs>
    <g>
        <path class="cls-1" d="m6.91,136.98h2.8v17.51h8.93v2.43H6.91v-19.94Z"/>
        <path class="cls-1" d="m27.45,142.29c4.04,0,6.19,3,6.19,6.7,0,.37-.08,1.19-.08,1.19h-10.42c.14,3.14,2.37,4.72,4.91,4.72s4.24-1.67,4.24-1.67l1.13,2.01s-2.12,2.03-5.54,2.03c-4.49,0-7.57-3.25-7.57-7.49,0-4.55,3.08-7.49,7.15-7.49Zm3.39,5.82c-.08-2.46-1.61-3.64-3.45-3.64-2.09,0-3.79,1.3-4.18,3.64h7.63Z"/>
        <path class="cls-1" d="m36.94,136.98h2.77v2.8h-2.77v-2.8Zm.03,5.65h2.74v14.29h-2.74v-14.29Z"/>
        <path class="cls-1" d="m44.01,136.98h2.74v6.52c0,.71-.06,1.21-.06,1.21h.06s1.21-2.43,4.58-2.43c3.84,0,6.27,3.05,6.27,7.49s-2.74,7.49-6.5,7.49c-3.19,0-4.49-2.46-4.49-2.46h-.06s.06.45.06,1.07v1.04h-2.6v-19.94Zm6.69,17.94c2.26,0,4.12-1.86,4.12-5.11s-1.67-5.11-4.04-5.11c-2.15,0-4.12,1.5-4.12,5.14,0,2.54,1.33,5.08,4.04,5.08Z"/>
        <path class="cls-1" d="m60.96,142.63h2.66v1.89c0,.56-.06,1.04-.06,1.04h.06c.56-1.24,2.26-3.28,5.37-3.28,3.36,0,4.91,1.84,4.91,5.48v9.15h-2.74v-8.53c0-2.01-.42-3.59-2.71-3.59s-3.93,1.44-4.52,3.5c-.17.56-.23,1.21-.23,1.92v6.7h-2.74v-14.29Z"/>
        <path class="cls-1" d="m77.97,136.98h2.77v2.8h-2.77v-2.8Zm.03,5.65h2.74v14.29h-2.74v-14.29Z"/>
        <path class="cls-1" d="m83.99,155.34l7.2-9.04c.62-.76,1.19-1.33,1.19-1.33v-.06s-.45.06-1.38.06h-6.69v-2.34h11.78v1.58l-7.2,9.07c-.59.73-1.21,1.3-1.21,1.3v.06s.48-.06,1.41-.06h7.26v2.34h-12.34v-1.58Z"/>
        <path class="cls-1" d="m99.67,147.66h8.25v2.43h-8.25v-2.43Z"/>
        <path class="cls-1" d="m112.75,136.98h2.8v19.94h-2.8v-19.94Z"/>
        <path class="cls-1" d="m120.41,142.63h2.66v1.89c0,.56-.06,1.04-.06,1.04h.06c.56-1.24,2.26-3.28,5.37-3.28,3.36,0,4.91,1.84,4.91,5.48v9.15h-2.74v-8.53c0-2.01-.42-3.59-2.71-3.59s-3.93,1.44-4.52,3.5c-.17.56-.23,1.21-.23,1.92v6.7h-2.74v-14.29Z"/>
        <path class="cls-1" d="m137.61,153.22s1.61,1.67,4.1,1.67c1.19,0,2.37-.62,2.37-1.78,0-2.63-7.34-2.09-7.34-6.75,0-2.6,2.32-4.07,5.17-4.07,3.13,0,4.6,1.58,4.6,1.58l-1.1,2.06s-1.27-1.27-3.53-1.27c-1.19,0-2.35.51-2.35,1.75,0,2.57,7.34,2,7.34,6.69,0,2.37-2.03,4.15-5.17,4.15-3.5,0-5.42-2.09-5.42-2.09l1.33-1.95Z"/>
        <path class="cls-1" d="m150.69,145.03h-1.87v-2.2h1.95v-4.12h2.65v4.12h3.45v2.2h-3.45v6.35c0,2.85,2.01,3.22,3.05,3.22.4,0,.65-.06.65-.06v2.43s-.4.06-.96.06c-1.84,0-5.48-.56-5.48-5.34v-6.67Z"/>
        <path class="cls-1" d="m160.19,136.98h2.77v2.8h-2.77v-2.8Zm.03,5.65h2.74v14.29h-2.74v-14.29Z"/>
        <path class="cls-1" d="m167.84,145.03h-1.87v-2.2h1.95v-4.12h2.65v4.12h3.45v2.2h-3.45v6.35c0,2.85,2.01,3.22,3.05,3.22.4,0,.65-.06.65-.06v2.43s-.4.06-.96.06c-1.84,0-5.48-.56-5.48-5.34v-6.67Z"/>
        <path class="cls-1" d="m177.17,142.63h2.74v8.53c0,1.98.4,3.56,2.68,3.56,2.91,0,4.63-2.57,4.63-5.4v-6.69h2.74v14.29h-2.66v-1.89c0-.59.06-1.04.06-1.04h-.06c-.59,1.41-2.46,3.28-5.25,3.28-3.22,0-4.89-1.7-4.89-5.48v-9.15Z"/>
        <path class="cls-1" d="m194.85,145.03h-1.87v-2.2h1.95v-4.12h2.65v4.12h3.45v2.2h-3.45v6.35c0,2.85,2.01,3.22,3.05,3.22.4,0,.65-.06.65-.06v2.43s-.4.06-.96.06c-1.84,0-5.48-.56-5.48-5.34v-6.67Z"/>
        <path class="cls-1" d="m212.4,145.03h-1.78v-2.2h1.78v-.68c0-4.72,3.56-5.31,5.37-5.31.62,0,1.05.08,1.05.08v2.35s-.28-.06-.71-.06c-1.04,0-2.99.34-2.99,2.99v.62h3.39v2.2h-3.39v11.89h-2.71v-11.89Z"/>
        <path class="cls-1" d="m220.93,142.63h2.74v8.53c0,1.98.4,3.56,2.68,3.56,2.91,0,4.63-2.57,4.63-5.4v-6.69h2.74v14.29h-2.66v-1.89c0-.59.06-1.04.06-1.04h-.06c-.59,1.41-2.46,3.28-5.25,3.28-3.22,0-4.89-1.7-4.89-5.48v-9.15Zm2.94-5.65h2.26v2.85h-2.26v-2.85Zm4.72,0h2.26v2.85h-2.26v-2.85Z"/>
        <path class="cls-1" d="m238.02,142.63h2.66v2.49c0,.59-.06,1.07-.06,1.07h.06c.65-2.09,2.31-3.73,4.52-3.73.37,0,.71.06.71.06v2.71s-.37-.08-.79-.08c-1.75,0-3.36,1.24-4.01,3.36-.25.82-.34,1.7-.34,2.57v5.85h-2.74v-14.29Z"/>
        <path class="cls-1" d="m6.91,166.86h7.29c3.64,0,6.27,2.46,6.27,6.24s-2.63,6.33-6.27,6.33h-4.49v7.37h-2.8v-19.94Zm6.84,10.14c2.4,0,3.87-1.5,3.87-3.9s-1.47-3.81-3.84-3.81h-4.07v7.71h4.04Z"/>
        <path class="cls-1" d="m23.67,183.1s1.61,1.67,4.1,1.67c1.19,0,2.37-.62,2.37-1.78,0-2.63-7.34-2.09-7.34-6.75,0-2.6,2.32-4.07,5.17-4.07,3.13,0,4.6,1.58,4.6,1.58l-1.1,2.06s-1.27-1.27-3.53-1.27c-1.19,0-2.35.51-2.35,1.75,0,2.57,7.34,2,7.34,6.69,0,2.37-2.03,4.15-5.17,4.15-3.5,0-5.42-2.09-5.42-2.09l1.33-1.95Z"/>
        <path class="cls-1" d="m35.11,189.76s.79.59,1.67.59c1.1,0,2.04-.79,2.57-2.09l.71-1.64-5.99-14.12h3.08l3.59,9.35c.28.73.54,1.72.54,1.72h.06s.23-.96.48-1.69l3.47-9.38h2.97l-6.7,16.86c-.87,2.2-2.63,3.36-4.63,3.36-1.61,0-2.77-.88-2.77-.88l.96-2.09Z"/>
        <path class="cls-1" d="m57.2,172.17c3.59,0,5.37,2.09,5.37,2.09l-1.3,1.92s-1.53-1.64-3.95-1.64c-2.88,0-4.97,2.15-4.97,5.08s2.09,5.14,5.06,5.14c2.65,0,4.41-1.92,4.41-1.92l1.1,2.01s-1.98,2.29-5.71,2.29c-4.49,0-7.66-3.19-7.66-7.49s3.16-7.49,7.66-7.49Z"/>
        <path class="cls-1" d="m66.02,166.86h2.74v7.32c0,.68-.06,1.19-.06,1.19h.06c.62-1.38,2.43-3.19,5.28-3.19,3.36,0,4.91,1.84,4.91,5.48v9.15h-2.74v-8.53c0-2.01-.42-3.59-2.71-3.59-2.15,0-3.93,1.47-4.52,3.53-.17.57-.23,1.22-.23,1.89v6.7h-2.74v-19.94Z"/>
        <path class="cls-1" d="m89.72,172.17c4.27,0,7.71,3.14,7.71,7.46s-3.45,7.51-7.71,7.51-7.71-3.16-7.71-7.51,3.45-7.46,7.71-7.46Zm0,12.6c2.71,0,4.91-2.15,4.91-5.14s-2.2-5.08-4.91-5.08-4.91,2.12-4.91,5.08,2.23,5.14,4.91,5.14Z"/>
        <path class="cls-1" d="m100.51,166.86h2.74v15.56c0,1.72.68,2.04,1.52,2.04.25,0,.48-.03.48-.03v2.43s-.42.06-.9.06c-1.55,0-3.84-.42-3.84-4.01v-16.04Z"/>
        <path class="cls-1" d="m114.84,172.17c4.27,0,7.71,3.14,7.71,7.46s-3.45,7.51-7.71,7.51-7.71-3.16-7.71-7.51,3.45-7.46,7.71-7.46Zm0,12.6c2.71,0,4.91-2.15,4.91-5.14s-2.2-5.08-4.91-5.08-4.91,2.12-4.91,5.08,2.23,5.14,4.91,5.14Z"/>
        <path class="cls-1" d="m131,190.36c2.48,0,4.52-1.1,4.52-4.01v-1.05c0-.45.03-.9.03-.9h-.06c-.85,1.41-2.18,2.23-4.24,2.23-3.98,0-6.39-3.19-6.39-7.32s2.29-7.15,6.24-7.15c3.45,0,4.49,2.12,4.49,2.12h.06s-.03-.2-.03-.45v-1.33h2.63v13.7c0,4.72-3.59,6.53-7.2,6.53-1.72,0-3.5-.48-4.89-1.19l.9-2.15s1.78.96,3.93.96Zm4.58-11.02c0-3.73-1.81-4.8-4.04-4.8-2.49,0-3.9,1.81-3.9,4.72s1.58,5,4.15,5c1.98,0,3.79-1.19,3.79-4.91Z"/>
        <path class="cls-1" d="m142.52,166.86h2.77v2.8h-2.77v-2.8Zm.03,5.65h2.74v14.29h-2.74v-14.29Z"/>
        <path class="cls-1" d="m155.75,172.17c4.04,0,6.19,3,6.19,6.7,0,.37-.08,1.19-.08,1.19h-10.42c.14,3.14,2.37,4.72,4.91,4.72s4.24-1.67,4.24-1.67l1.13,2.01s-2.12,2.03-5.54,2.03c-4.49,0-7.57-3.25-7.57-7.49,0-4.55,3.08-7.49,7.15-7.49Zm3.39,5.82c-.08-2.46-1.61-3.64-3.45-3.64-2.09,0-3.79,1.3-4.18,3.64h7.63Z"/>
    </g>
    <g><g>
        <path class="cls-1" d="m26.78,88.67c.87-.83,2.38-2.35,3.99-4.39l24.6-30.83v-7.97H8.05v12.43h23.44c1.9,0,3.23-.07,4.06-.12-.83.81-2.32,2.36-3.98,4.44l-24.6,30.83v7.86h49.14v-12.43h-25.26c-1.89,0-3.23.09-4.08.18Z"/>
        <path class="cls-1" d="m92.31,44.2c-10.17,0-15.4,5.63-17.2,8.09.05-.66.09-1.5.09-2.41v-4.4h-13.29v76.85h14.47v-23.34c0-1.49-.06-2.73-.12-3.57,1.71,2.03,6.66,6.79,15.3,6.79,14.94,0,25.37-11.93,25.37-29.01s-9.89-29.01-24.62-29.01Zm10.05,29.22c0,11.38-6.66,16.47-13.26,16.47-9.03,0-13.15-8.48-13.15-16.36,0-12.38,6.85-16.79,13.26-16.79,7.86,0,13.15,6.7,13.15,16.68Z"/>
        <rect class="cls-1" x="122.4" y="24.08" width="14.36" height="15.43"/>
        <rect class="cls-1" x="122.4" y="45.48" width="14.47" height="55.45"/>
        <path class="cls-1" d="m182.89,24.08v24.41c0,.71.02,1.37.04,1.9-1.55-1.98-5.97-6.19-15.44-6.19-15.05,0-25.16,11.66-25.16,29.01s9.89,29.01,24.62,29.01c9.86,0,14.96-5.75,16.75-8.33-.04.58-.07,1.3-.07,2.11v4.93h13.72V24.08h-14.47Zm.43,49.02c0,12.38-6.85,16.79-13.26,16.79-7.87,0-13.15-6.7-13.15-16.68,0-11.38,6.66-16.47,13.26-16.47,9.04,0,13.15,8.48,13.15,16.36Z"/>
    </g><g>
        <path class="cls-1" d="m238.4,5.91c-16,0-29.02,13.02-29.02,29.02s13.02,29.02,29.02,29.02,29.02-13.02,29.02-29.02-13.02-29.02-29.02-29.02Zm0,54.39c-13.99,0-25.37-11.38-25.37-25.37s11.38-25.37,25.37-25.37,25.37,11.38,25.37,25.37-11.38,25.37-25.37,25.37Z"/>
        <path class="cls-1" d="m248.36,22.51c-1.26-.27-2.59-.23-3.89-.22-4.31.02-7.78,3.53-7.78,7.84,0,7.67,0,15.33,0,23v.78h3.68v-10.63c1.65,0,3.2,0,4.76,0,4.39,0,8.38-3.19,9.12-7.51.32-1.86.31-3.81.25-5.71-.12-3.81-2.53-6.79-6.13-7.55Zm2.41,11.75c-.15,2.92-2.69,5.28-5.61,5.3-1.57,0-4.8,0-4.8,0,0,0,0-7.54,0-9.18.02-2.46,1.56-4.19,3.93-4.39.96-.08,1.93-.06,2.89.04,1.95.2,3.52,1.89,3.6,3.85.06,1.46.07,2.92,0,4.38Z"/>
        <path class="cls-1" d="m226.76,33.42c0-2.93,0-9.28,0-9.28h-3.67s-.02,6.74.01,9.86c0,.73.11,1.49.3,2.19,1.25,4.72,5.66,6.99,10.91,6.99v-3.55c-5.23,0-7.56-2.27-7.56-6.21Z"/>
    </g></g>
</svg>