<svg version="1.1" id="prefix__Ebene_1" xmlns="http://www.w3.org/2000/svg" x="0" y="0" viewBox="0 0 362.4 78.8" xml:space="preserve"><style>.prefix__st0{enable-background:new}.prefix__st1{fill:#362071}.prefix__st2{fill:none;stroke:#362071;stroke-width:5;stroke-miterlimit:10}</style><g class="prefix__st0"><path class="prefix__st1" d="M89.8 36.9H88v-2.1h4.6v12.1c0 1 .2 1.6 1.2 1.6h.5v2.3s-.5.1-1 .1c-1.8 0-3.5-.6-3.5-3.7V36.9zM101.6 39c3.3 0 5.1 2.4 5.1 5.4 0 .3-.1 1-.1 1h-7.9c.2 2.1 1.7 3.2 3.4 3.2 1.9 0 3.3-1.2 3.3-1.2l1.1 2s-1.7 1.6-4.6 1.6c-3.8 0-6.1-2.7-6.1-6 0-3.6 2.3-6 5.8-6zm2.1 4.7c0-1.6-1-2.5-2.2-2.5-1.5 0-2.5 1-2.8 2.5h5zM108.5 48.5h1.7v-7.2h-1.8v-2.1h4.6v9.3h1.6v2.1h-6.1v-2.1zm1.7-13.7h2.9v2.5h-2.9v-2.5zM117.1 36.9h-1.7v-2.1h4.6v6s1-1.7 3.4-1.7c3.1 0 5.1 2.4 5.1 6s-2.2 6-5.3 6c-2.5 0-3.4-1.8-3.4-1.8v1.6h-2.7v-14zm5.6 11.6c1.6 0 2.9-1.3 2.9-3.5s-1.2-3.6-2.8-3.6c-1.5 0-2.9 1.1-2.9 3.6 0 1.8.9 3.5 2.8 3.5zM130.3 48.5h1.7v-6.7c0-.3-.2-.5-.5-.5h-1.3v-2.1h3c1 0 1.5.5 1.5 1.3v1c.1-.4 1.3-2.6 4.2-2.6 2.4 0 3.8 1.3 3.8 4.3v5.2h1.7v2.1h-4.5v-6.8c0-1.4-.4-2.3-1.8-2.3-2.1 0-3.3 2-3.3 4v3h1.6v2.1h-6.1v-2zM145.9 48.5h1.7v-7.2h-1.8v-2.1h4.6v9.3h1.6v2.1h-6.1v-2.1zm1.7-13.7h2.9v2.5h-2.9v-2.5zM159.6 42c.3-.4.7-.7.7-.7h-4V43h-2.4v-3.8h9.8V41l-5.7 6.8c-.3.4-.7.6-.7.6H161.4v-1.6h2.4v3.8h-10v-1.8l5.8-6.8zM166.6 43h6.7v2.5h-6.7V43zM177.6 53V41.9c0-.3-.2-.5-.5-.5h-1.3v-2.1h2.9c1.1 0 1.4.5 1.4 1.1v.6s1-1.9 3.7-1.9c3.1 0 5.1 2.4 5.1 6s-2.2 6-5.2 6c-2.3 0-3.3-1.6-3.3-1.6s.1.4.1 1V53h1.7v2.1H176V53h1.6zm5.6-4.5c1.6 0 2.9-1.3 2.9-3.5s-1.2-3.6-2.8-3.6c-1.5 0-2.9 1.1-2.9 3.6 0 1.8 1 3.5 2.8 3.5zM190.6 46.9h2.4v.7c0 .8 1.1 1.2 2.2 1.2s2-.4 2-1.2c0-1-1.1-1.2-2.6-1.8-1.7-.6-3.6-1.4-3.6-3.5 0-2.4 2.4-3.3 4.5-3.3 1.7 0 4.1.7 4.1 2.4v1.5h-2.4v-.6c0-.6-.7-.9-1.7-.9-.9 0-1.7.3-1.7 1 0 .9 1.1 1.3 2.4 1.7 1.7.6 3.8 1.3 3.8 3.5 0 2.3-2.2 3.5-4.8 3.5-2.1 0-4.6-.9-4.6-2.8v-1.4z"/></g><g class="prefix__st0"><path class="prefix__st1" d="M204 53c.9 0 1.7-.5 2-1.3l.3-.7-3.9-9.6H201v-2.1h5.6v2.1h-1.3l2.1 5.8c.2.6.2 1.2.2 1.2h.1s.1-.6.3-1.2l2.1-5.8h-1.3v-2.1h5.4v2.1h-1.3l-4.2 10.8c-.9 2.3-2.6 3.2-4.5 3.2-1.7 0-2.8-.8-2.8-.8l.9-2.1s.7.5 1.7.5z"/></g><g class="prefix__st0"><path class="prefix__st1" d="M221.2 39c1.9 0 4.7.7 4.7 2.7v1.6h-2.5v-.8c0-.8-1.2-1.1-2.1-1.1-2.1 0-3.4 1.4-3.4 3.5 0 2.4 1.6 3.6 3.6 3.6 1.6 0 2.9-.9 3.6-1.4l1 2c-.8.7-2.6 1.8-4.7 1.8-3.3 0-6.3-2.3-6.3-6 0-3.3 2.6-5.9 6.1-5.9zM227.5 48.5h1.7V36.9h-1.8v-2.1h4.6v5.6c0 .6-.1 1-.1 1 .6-1.1 2-2.3 3.9-2.3 2.5 0 4 1.3 4 4.3v5.2h1.7v2.1H237v-6.8c0-1.4-.4-2.3-1.8-2.3-2 0-3.3 1.7-3.3 3.9v3.1h1.6v2.1h-6.1v-2.2zM249.1 39c3.5 0 6.3 2.5 6.3 6s-2.8 6-6.3 6-6.3-2.5-6.3-6 2.8-6 6.3-6zm0 9.5c1.8 0 3.4-1.4 3.4-3.6 0-2.1-1.5-3.6-3.4-3.6s-3.4 1.5-3.4 3.6c0 2.2 1.6 3.6 3.4 3.6z"/></g><g class="prefix__st0"><path class="prefix__st1" d="M257.8 36.9H256v-2.1h4.6v12.1c0 1 .2 1.6 1.2 1.6h.5v2.3s-.5.1-1 .1c-1.8 0-3.5-.6-3.5-3.7V36.9z"/></g><g class="prefix__st0"><path class="prefix__st1" d="M270 39c3.5 0 6.3 2.5 6.3 6s-2.8 6-6.3 6-6.3-2.5-6.3-6 2.8-6 6.3-6zm0 9.5c1.8 0 3.4-1.4 3.4-3.6 0-2.1-1.5-3.6-3.4-3.6s-3.4 1.5-3.4 3.6c0 2.2 1.6 3.6 3.4 3.6zM283 53c1.7 0 3.2-.8 3.2-2.9v-.7-.6c-.7 1-1.7 1.6-3.2 1.6-3.3 0-5.1-2.6-5.1-5.8 0-3.1 1.8-5.7 5.1-5.7 1.4 0 2.9.5 3.5 1.7v-.4c0-.6.4-1.1 1.3-1.1h2.8v2.1h-1.1c-.3 0-.5.2-.5.4V50c0 3.9-3 5.4-6 5.4-1.4 0-3-.4-4.1-1l.9-2.1s1.4.7 3.2.7zm3.3-8.3c0-2.6-1.3-3.3-2.8-3.3-1.7 0-2.7 1.3-2.7 3.2 0 2 1 3.5 2.9 3.5 1.3-.1 2.6-.8 2.6-3.4z"/></g><g class="prefix__st0"><path class="prefix__st1" d="M294.5 53c.9 0 1.7-.5 2-1.3l.3-.7-3.9-9.6h-1.4v-2.1h5.6v2.1h-1.3l2.1 5.8c.2.6.2 1.2.2 1.2h.1s.1-.6.3-1.2l2.1-5.8h-1.3v-2.1h5.4v2.1h-1.3l-4.2 10.8c-.9 2.3-2.6 3.2-4.5 3.2-1.7 0-2.8-.8-2.8-.8l.9-2.1s.7.5 1.7.5z"/></g><g class="prefix__st0"><path class="prefix__st1" d="M306.1 47.8h2.8v2.9h-2.8v-2.9zM317.5 39c3.5 0 6.3 2.5 6.3 6s-2.8 6-6.3 6-6.3-2.5-6.3-6c.1-3.5 2.9-6 6.3-6zm.1 9.5c1.8 0 3.4-1.4 3.4-3.6 0-2.1-1.5-3.6-3.4-3.6s-3.4 1.5-3.4 3.6c0 2.2 1.5 3.6 3.4 3.6zM325.6 48.5h1.7v-6.7c0-.3-.2-.5-.5-.5h-1.3v-2.1h3c1 0 1.5.4 1.5 1.4V42c.5-1.6 1.9-2.9 3.6-2.9h.5v2.8h-.7c-2.3 0-3.3 2-3.3 4.2v2.5h1.6v2.1h-6.1v-2.2zM340.5 53c1.7 0 3.2-.8 3.2-2.9v-.7-.6c-.7 1-1.7 1.6-3.2 1.6-3.3 0-5.1-2.6-5.1-5.8 0-3.1 1.8-5.7 5.1-5.7 1.4 0 2.9.5 3.5 1.7v-.4c0-.6.4-1.1 1.3-1.1h2.8v2.1H347c-.3 0-.5.2-.5.4V50c0 3.9-3 5.4-6 5.4-1.4 0-3-.4-4.1-1l.9-2.1s1.4.7 3.2.7zm3.3-8.3c0-2.6-1.3-3.3-2.8-3.3-1.7 0-2.7 1.3-2.7 3.2 0 2 1 3.5 2.9 3.5 1.3-.1 2.6-.8 2.6-3.4z"/></g><circle class="prefix__st2" cx="39.4" cy="39.4" r="36.9"/><path class="prefix__st2" d="M34 48.3h-2.4c-5.7 0-10.4-4.7-10.4-10.4V24.7M39.6 65.3V33c0-4.5 3.7-8.2 8.2-8.2h2.8c4.5 0 8.2 3.7 8.2 8.2v4.9c0 5.7-4.7 10.4-10.4 10.4h-9.8"/></svg>