<!-- mdi:table -->
<!-- https://icon-sets.iconify.design/mdi/table/ -->
<svg class="w-5 h-5 text-zpid-purple" xmlns="http://www.w3.org/2000/svg"
     xmlns:xlink="http://www.w3.org/1999/xlink" aria-hidden="true" role="img"
     style="vertical-align: -0.125em;" width="1em" height="1em" preserveAspectRatio="xMidYMid meet"
     viewBox="0 0 24 24">
    <path d="M5 4h14a2 2 0 0 1 2 2v12a2 2 0 0 1-2 2H5a2 2 0 0 1-2-2V6a2 2 0 0 1 2-2m0 4v4h6V8H5m8 0v4h6V8h-6m-8 6v4h6v-4H5m8 0v4h6v-4h-6z"
          fill="currentColor"/>
</svg>